# xmcd CD database file
#
# Track frame offsets:
#	150
#	29218
#	53314
#	82904
#	106297
#	135448
#	154455
#
# Disc length: 2865 seconds
#
# Revision: 3
# Processed by: cddbd v1.4PL0 Copyright (c) Steve Scherf et al.
# Submitted via: CDex 1.50
#
DISCID=500b2f07
DTITLE=Bugs Henderson Group - All Last
DYEAR=1978
DGENRE=Rock
TTITLE0=Boppin´ The Blues/Blues Suede Shoes
TTITLE1=Love Junkie
TTITLE2=Takes My Breath Away
TTITLE3=Honest I Do
TTITLE4=Shuffle King
TTITLE5=Texas Ballbuster
TTITLE6=Hound Dog/Gigglebush Boogie
EXTD=YEAR: 1978
EXTT0=
EXTT1=
EXTT2=
EXTT3=
EXTT4=
EXTT5=
EXTT6=
PLAYORDER=
